<svg width="25" height="25" viewBox="0 0 25 25" fill="none" xmlns="http://www.w3.org/2000/svg">
<path d="M24 0H1C0.446875 0 0 0.446875 0 1V24C0 24.5531 0.446875 25 1 25H24C24.5531 25 25 24.5531 25 24V1C25 0.446875 24.5531 0 24 0ZM21.1125 7.29688H19.1156C17.55 7.29688 17.2469 8.04062 17.2469 9.13437V11.5437H20.9844L20.4969 15.3156H17.2469V25H13.35V15.3188H10.0906V11.5437H13.35V8.7625C13.35 5.53437 15.3219 3.775 18.2031 3.775C19.5844 3.775 20.7688 3.87813 21.1156 3.925V7.29688H21.1125Z" fill="white"/>
</svg>
