{
    "asset" : {
        "generator" : "Khronos glTF Blender I/O v0.9.36",
        "version" : "2.0"
    },
    "scene" : 0,
    "scenes" : [
        {
            "name" : "Scene",
            "nodes" : [
                0,
                1
            ]
        }
    ],
    "nodes" : [
        {
            "mesh" : 0,
            "name" : "body"
        },
        {
            "mesh" : 1,
            "name" : "trigger",
            "translation" : [
                0,
                0.0073020001873373985,
                -0.015176050364971161
            ]
        }
    ],
    "meshes" : [
        {
            "name" : "Cube.001",
            "primitives" : [
                {
                    "attributes" : {
                        "POSITION" : 0,
                        "NORMAL" : 1,
                        "TEXCOORD_0" : 2
                    },
                    "indices" : 3
                }
            ]
        },
        {
            "name" : "Cube.002",
            "primitives" : [
                {
                    "attributes" : {
                        "POSITION" : 4,
                        "NORMAL" : 5,
                        "TEXCOORD_0" : 6
                    },
                    "indices" : 7
                }
            ]
        }
    ],
    "accessors" : [
        {
            "bufferView" : 0,
            "componentType" : 5126,
            "count" : 1836,
            "max" : [
                0.023331953212618828,
                0.01694893278181553,
                0.1260315179824829
            ],
            "min" : [
                -0.023331953212618828,
                -0.009985549375414848,
                -0.03485046327114105
            ],
            "type" : "VEC3"
        },
        {
            "bufferView" : 1,
            "componentType" : 5126,
            "count" : 1836,
            "type" : "VEC3"
        },
        {
            "bufferView" : 2,
            "componentType" : 5126,
            "count" : 1836,
            "type" : "VEC2"
        },
        {
            "bufferView" : 3,
            "componentType" : 5123,
            "count" : 5760,
            "type" : "SCALAR"
        },
        {
            "bufferView" : 4,
            "componentType" : 5126,
            "count" : 182,
            "max" : [
                0.015174336731433868,
                -0.006641602609306574,
                0.03528035059571266
            ],
            "min" : [
                -0.015174339525401592,
                -0.028060246258974075,
                -0.0014659010339528322
            ],
            "type" : "VEC3"
        },
        {
            "bufferView" : 5,
            "componentType" : 5126,
            "count" : 182,
            "type" : "VEC3"
        },
        {
            "bufferView" : 6,
            "componentType" : 5126,
            "count" : 182,
            "type" : "VEC2"
        },
        {
            "bufferView" : 7,
            "componentType" : 5123,
            "count" : 720,
            "type" : "SCALAR"
        }
    ],
    "bufferViews" : [
        {
            "buffer" : 0,
            "byteLength" : 22032,
            "byteOffset" : 0
        },
        {
            "buffer" : 0,
            "byteLength" : 22032,
            "byteOffset" : 22032
        },
        {
            "buffer" : 0,
            "byteLength" : 14688,
            "byteOffset" : 44064
        },
        {
            "buffer" : 0,
            "byteLength" : 11520,
            "byteOffset" : 58752
        },
        {
            "buffer" : 0,
            "byteLength" : 2184,
            "byteOffset" : 70272
        },
        {
            "buffer" : 0,
            "byteLength" : 2184,
            "byteOffset" : 72456
        },
        {
            "buffer" : 0,
            "byteLength" : 1456,
            "byteOffset" : 74640
        },
        {
            "buffer" : 0,
            "byteLength" : 1440,
            "byteOffset" : 76096
        }
    ],
    "buffers" : [
        {
            "byteLength" : 77536,
            "uri" : "data:application/octet-stream;base64,"
        }
    ]
}
