{
    "asset" : {
        "generator" : "Khronos glTF Blender I/O v0.9.36",
        "version" : "2.0"
    },
    "scene" : 0,
    "scenes" : [
        {
            "name" : "Scene",
            "nodes" : [
                0,
                1
            ]
        }
    ],
    "nodes" : [
        {
            "mesh" : 0,
            "name" : "trigger",
            "translation" : [
                0.022489499300718307,
                0.0073020001873373985,
                -0.015176050364971161
            ]
        },
        {
            "mesh" : 1,
            "name" : "body"
        }
    ],
    "meshes" : [
        {
            "name" : "Cube.002",
            "primitives" : [
                {
                    "attributes" : {
                        "POSITION" : 0,
                        "NORMAL" : 1,
                        "TEXCOORD_0" : 2
                    },
                    "indices" : 3
                }
            ]
        },
        {
            "name" : "Cube.004",
            "primitives" : [
                {
                    "attributes" : {
                        "POSITION" : 4,
                        "NORMAL" : 5,
                        "TEXCOORD_0" : 6
                    },
                    "indices" : 7
                }
            ]
        }
    ],
    "accessors" : [
        {
            "bufferView" : 0,
            "componentType" : 5126,
            "count" : 286,
            "max" : [
                -0.007532828487455845,
                -0.006641602609306574,
                0.03528035059571266
            ],
            "min" : [
                -0.03788150101900101,
                -0.028060246258974075,
                -0.0014659010339528322
            ],
            "type" : "VEC3"
        },
        {
            "bufferView" : 1,
            "componentType" : 5126,
            "count" : 286,
            "type" : "VEC3"
        },
        {
            "bufferView" : 2,
            "componentType" : 5126,
            "count" : 286,
            "type" : "VEC2"
        },
        {
            "bufferView" : 3,
            "componentType" : 5123,
            "count" : 1512,
            "type" : "SCALAR"
        },
        {
            "bufferView" : 4,
            "componentType" : 5126,
            "count" : 681,
            "max" : [
                0.023876497521996498,
                0.01699017360806465,
                0.12646976113319397
            ],
            "min" : [
                -0.02431183122098446,
                -0.010280347429215908,
                -0.03512638062238693
            ],
            "type" : "VEC3"
        },
        {
            "bufferView" : 5,
            "componentType" : 5126,
            "count" : 681,
            "type" : "VEC3"
        },
        {
            "bufferView" : 6,
            "componentType" : 5126,
            "count" : 681,
            "type" : "VEC2"
        },
        {
            "bufferView" : 7,
            "componentType" : 5123,
            "count" : 3288,
            "type" : "SCALAR"
        }
    ],
    "bufferViews" : [
        {
            "buffer" : 0,
            "byteLength" : 3432,
            "byteOffset" : 0
        },
        {
            "buffer" : 0,
            "byteLength" : 3432,
            "byteOffset" : 3432
        },
        {
            "buffer" : 0,
            "byteLength" : 2288,
            "byteOffset" : 6864
        },
        {
            "buffer" : 0,
            "byteLength" : 3024,
            "byteOffset" : 9152
        },
        {
            "buffer" : 0,
            "byteLength" : 8172,
            "byteOffset" : 12176
        },
        {
            "buffer" : 0,
            "byteLength" : 8172,
            "byteOffset" : 20348
        },
        {
            "buffer" : 0,
            "byteLength" : 5448,
            "byteOffset" : 28520
        },
        {
            "buffer" : 0,
            "byteLength" : 6576,
            "byteOffset" : 33968
        }
    ],
    "buffers" : [
        {
            "byteLength" : 40544,
            "uri" : "data:application/octet-stream;base64,"
        }
    ]
}
