{
    "asset" : {
        "generator" : "Khronos glTF Blender I/O v0.9.36",
        "version" : "2.0"
    },
    "scene" : 0,
    "scenes" : [
        {
            "name" : "Scene",
            "nodes" : [
                0,
                1,
                2,
                3,
                4,
                5,
                6
            ]
        }
    ],
    "nodes" : [
        {
            "mesh" : 0,
            "name" : "lightpanels",
            "rotation" : [
                0,
                0,
                -1,
                7.549790126404332e-08
            ],
            "translation" : [
                -4.135918617248535,
                3.963474750518799,
                2.7635395526885986
            ]
        },
        {
            "mesh" : 1,
            "name" : "hall",
            "scale" : [
                0.10000000149011612,
                0.5,
                0.10000000149011612
            ],
            "translation" : [
                -3.418994903564453,
                0.49220409989356995,
                0.061171531677246094
            ]
        },
        {
            "mesh" : 2,
            "name" : "teleport",
            "scale" : [
                0.10000000149011612,
                0.5,
                0.10000000149011612
            ],
            "translation" : [
                -3.418994903564453,
                0.49220409989356995,
                0.061171531677246094
            ]
        },
        {
            "mesh" : 3,
            "name" : "doorA",
            "rotation" : [
                0,
                -1,
                0,
                1.1924880638503055e-08
            ],
            "scale" : [
                0.03975028172135353,
                0.9949567914009094,
                0.8188906908035278
            ],
            "translation" : [
                6.691515922546387,
                2.210728883743286,
                5.195441722869873
            ]
        },
        {
            "mesh" : 4,
            "name" : "doorD",
            "translation" : [
                6.6689958572387695,
                0.9933289289474487,
                -7.215817451477051
            ]
        },
        {
            "mesh" : 5,
            "name" : "doorC",
            "translation" : [
                -4.127745151519775,
                0.9982454180717468,
                -5.134819030761719
            ]
        },
        {
            "mesh" : 6,
            "name" : "doorB",
            "rotation" : [
                0,
                0,
                0,
                -1
            ],
            "scale" : [
                0.03975028172135353,
                0.9949567914009094,
                0.4632522463798523
            ],
            "translation" : [
                -5.69205379486084,
                1.0007325410842896,
                2.0527472496032715
            ]
        }
    ],
    "meshes" : [
        {
            "name" : "Plane.006",
            "primitives" : [
                {
                    "attributes" : {
                        "POSITION" : 0
                    },
                    "indices" : 1
                }
            ]
        },
        {
            "name" : "Cube.016",
            "primitives" : [
                {
                    "attributes" : {
                        "POSITION" : 2,
                        "TEXCOORD_0" : 3,
                        "TEXCOORD_1" : 4
                    },
                    "indices" : 5
                }
            ]
        },
        {
            "name" : "Cube.000",
            "primitives" : [
                {
                    "attributes" : {
                        "POSITION" : 6
                    },
                    "indices" : 7
                }
            ]
        },
        {
            "name" : "Cube.003",
            "primitives" : [
                {
                    "attributes" : {
                        "POSITION" : 8,
                        "TEXCOORD_0" : 9
                    },
                    "indices" : 10
                }
            ]
        },
        {
            "name" : "Cube.004",
            "primitives" : [
                {
                    "attributes" : {
                        "POSITION" : 11,
                        "TEXCOORD_0" : 12
                    },
                    "indices" : 10
                }
            ]
        },
        {
            "name" : "Cube.007",
            "primitives" : [
                {
                    "attributes" : {
                        "POSITION" : 13,
                        "TEXCOORD_0" : 14
                    },
                    "indices" : 10
                }
            ]
        },
        {
            "name" : "Cube.008",
            "primitives" : [
                {
                    "attributes" : {
                        "POSITION" : 15,
                        "TEXCOORD_0" : 16
                    },
                    "indices" : 10
                }
            ]
        }
    ],
    "accessors" : [
        {
            "bufferView" : 0,
            "componentType" : 5126,
            "count" : 188,
            "max" : [
                1,
                3.2319037914276123,
                3.801485776901245
            ],
            "min" : [
                -11.177228927612305,
                -1.0726031064987183,
                -8.940918922424316
            ],
            "type" : "VEC3"
        },
        {
            "bufferView" : 1,
            "componentType" : 5123,
            "count" : 282,
            "type" : "SCALAR"
        },
        {
            "bufferView" : 2,
            "componentType" : 5126,
            "count" : 1578,
            "max" : [
                137.45249938964844,
                12.176088333129883,
                75.79037475585938
            ],
            "min" : [
                -50.1136474609375,
                -1.3566347360610962,
                -74.8649673461914
            ],
            "type" : "VEC3"
        },
        {
            "bufferView" : 3,
            "componentType" : 5126,
            "count" : 1578,
            "type" : "VEC2"
        },
        {
            "bufferView" : 4,
            "componentType" : 5126,
            "count" : 1578,
            "type" : "VEC2"
        },
        {
            "bufferView" : 5,
            "componentType" : 5123,
            "count" : 2364,
            "type" : "SCALAR"
        },
        {
            "bufferView" : 6,
            "componentType" : 5126,
            "count" : 201,
            "max" : [
                113.76461029052734,
                1.4975039958953857,
                64.21049499511719
            ],
            "min" : [
                -19.55636978149414,
                -0.8989529609680176,
                -69.99706268310547
            ],
            "type" : "VEC3"
        },
        {
            "bufferView" : 7,
            "componentType" : 5123,
            "count" : 222,
            "type" : "SCALAR"
        },
        {
            "bufferView" : 8,
            "componentType" : 5126,
            "count" : 4,
            "max" : [
                0.1259007751941681,
                0.9292822480201721,
                0.8387722969055176
            ],
            "min" : [
                0.12589767575263977,
                -1.0064716339111328,
                -0.8372595310211182
            ],
            "type" : "VEC3"
        },
        {
            "bufferView" : 9,
            "componentType" : 5126,
            "count" : 4,
            "type" : "VEC2"
        },
        {
            "bufferView" : 10,
            "componentType" : 5123,
            "count" : 6,
            "type" : "SCALAR"
        },
        {
            "bufferView" : 11,
            "componentType" : 5126,
            "count" : 4,
            "max" : [
                0.618717610836029,
                0.9245956540107727,
                0.005005116108804941
            ],
            "min" : [
                -0.7907319068908691,
                -1.00139582157135,
                0.005004053935408592
            ],
            "type" : "VEC3"
        },
        {
            "bufferView" : 12,
            "componentType" : 5126,
            "count" : 4,
            "type" : "VEC2"
        },
        {
            "bufferView" : 13,
            "componentType" : 5126,
            "count" : 4,
            "max" : [
                0.005004659295082092,
                0.9245956540107727,
                0.3885631561279297
            ],
            "min" : [
                0.005004411563277245,
                -1.00139582157135,
                -0.847278356552124
            ],
            "type" : "VEC3"
        },
        {
            "bufferView" : 14,
            "componentType" : 5126,
            "count" : 4,
            "type" : "VEC2"
        },
        {
            "bufferView" : 15,
            "componentType" : 5126,
            "count" : 4,
            "max" : [
                0.1259007751941681,
                0.9292822480201721,
                0.8387722969055176
            ],
            "min" : [
                0.12590038776397705,
                -1.0064716339111328,
                -2.035288095474243
            ],
            "type" : "VEC3"
        },
        {
            "bufferView" : 16,
            "componentType" : 5126,
            "count" : 4,
            "type" : "VEC2"
        }
    ],
    "bufferViews" : [
        {
            "buffer" : 0,
            "byteLength" : 2256,
            "byteOffset" : 0
        },
        {
            "buffer" : 0,
            "byteLength" : 564,
            "byteOffset" : 2256
        },
        {
            "buffer" : 0,
            "byteLength" : 18936,
            "byteOffset" : 2820
        },
        {
            "buffer" : 0,
            "byteLength" : 12624,
            "byteOffset" : 21756
        },
        {
            "buffer" : 0,
            "byteLength" : 12624,
            "byteOffset" : 34380
        },
        {
            "buffer" : 0,
            "byteLength" : 4728,
            "byteOffset" : 47004
        },
        {
            "buffer" : 0,
            "byteLength" : 2412,
            "byteOffset" : 51732
        },
        {
            "buffer" : 0,
            "byteLength" : 444,
            "byteOffset" : 54144
        },
        {
            "buffer" : 0,
            "byteLength" : 48,
            "byteOffset" : 54588
        },
        {
            "buffer" : 0,
            "byteLength" : 32,
            "byteOffset" : 54636
        },
        {
            "buffer" : 0,
            "byteLength" : 12,
            "byteOffset" : 54668
        },
        {
            "buffer" : 0,
            "byteLength" : 48,
            "byteOffset" : 54680
        },
        {
            "buffer" : 0,
            "byteLength" : 32,
            "byteOffset" : 54728
        },
        {
            "buffer" : 0,
            "byteLength" : 48,
            "byteOffset" : 54760
        },
        {
            "buffer" : 0,
            "byteLength" : 32,
            "byteOffset" : 54808
        },
        {
            "buffer" : 0,
            "byteLength" : 48,
            "byteOffset" : 54840
        },
        {
            "buffer" : 0,
            "byteLength" : 32,
            "byteOffset" : 54888
        }
    ],
    "buffers" : [
        {
            "byteLength" : 54920,
            "uri" : "data:application/octet-stream;base64,"
        }
    ]
}
