<svg xmlns="http://www.w3.org/2000/svg" xmlns:xlink="http://www.w3.org/1999/xlink" width="308" height="39">
  <defs>
    <path id="a" d="M25.578 10.006h-2.465v15.138h2.349V27h-6.699v-1.856h2.204V13.138h-.116l-6.322 12.905h-1.131L6.931 13.051h-.116v12.093h2.262V27h-6.67v-1.856h2.378V10.006H2.32V8.15h4.321l7.337 14.761h.116L21.228 8.15h4.35v1.856zm3.973.754V8.121h2.204v2.639h-2.204zM34.046 27h-6.554v-1.653h2.262v-9.599h-2.32v-1.653h4.35v11.252h2.262V27zm14.645 0h-5.684v-1.653h1.682l-3.016-3.712-3.045 3.712h1.537V27H34.8v-1.653h1.769l4.06-4.785-4.089-4.814H34.8v-1.653h5.887v1.653h-1.74l2.9 3.654 2.987-3.654h-1.537v-1.653h5.162v1.653h-1.508l-4.031 4.698 4.147 4.901h1.624V27zm13.137-3.712c-.174 1.16-.74 2.117-1.697 2.871-.957.754-2.199 1.131-3.726 1.131-1.856 0-3.335-.58-4.437-1.74-1.102-1.16-1.653-2.765-1.653-4.814 0-2.03.536-3.688 1.61-4.974 1.073-1.285 2.508-1.928 4.306-1.928 1.701 0 3.035.541 4.002 1.624.967 1.083 1.46 2.426 1.479 4.031 0 .503-.058 1.015-.174 1.537h-9.077c.058 1.45.435 2.566 1.131 3.35.696.783 1.682 1.174 2.958 1.174 1.933 0 3.122-.88 3.567-2.639l1.711.377zm-2.262-3.77c.116-1.044-.126-1.972-.725-2.784-.6-.812-1.489-1.218-2.668-1.218-1.121 0-1.982.367-2.581 1.102-.6.735-.967 1.701-1.102 2.9h7.076zM78.358 27h-4.263v-2.61c-1.063 1.933-2.6 2.9-4.611 2.9-1.682 0-3.026-.57-4.031-1.711-1.005-1.14-1.508-2.707-1.508-4.698 0-1.933.483-3.591 1.45-4.973.967-1.383 2.426-2.074 4.379-2.074 2.01 0 3.451.783 4.321 2.349V8.701h-3.132V7.048h5.162v18.299h2.233V27zm-4.263-5.713v-2.059c-.039-1.063-.43-1.938-1.174-2.625-.745-.686-1.639-1.029-2.683-1.029-1.353 0-2.383.493-3.088 1.479-.706.986-1.059 2.214-1.059 3.683 0 1.527.362 2.711 1.088 3.552.725.842 1.667 1.262 2.827 1.262 1.102 0 2.05-.45 2.842-1.349.793-.899 1.208-1.87 1.247-2.914zM103.066 27h-3.77l-4.06-7.888h-4.031v6.032h2.523V27h-7.047v-1.856h2.378V10.006h-2.378V8.15h8.149c2.223 0 3.867.483 4.93 1.45 1.063.967 1.595 2.262 1.595 3.886 0 1.257-.348 2.354-1.044 3.291-.696.938-1.692 1.581-2.987 1.929l3.364 6.438h2.378V27zm-3.944-13.427c0-1.237-.358-2.141-1.073-2.712-.715-.57-1.875-.855-3.48-.855h-3.364v7.337h3.422c2.997 0 4.495-1.257 4.495-3.77zm16.385 9.715c-.174 1.16-.74 2.117-1.697 2.871-.957.754-2.199 1.131-3.726 1.131-1.856 0-3.335-.58-4.437-1.74-1.102-1.16-1.653-2.765-1.653-4.814 0-2.03.536-3.688 1.61-4.974 1.073-1.285 2.508-1.928 4.306-1.928 1.701 0 3.035.541 4.002 1.624.967 1.083 1.46 2.426 1.479 4.031 0 .503-.058 1.015-.174 1.537h-9.077c.058 1.45.435 2.566 1.131 3.35.696.783 1.682 1.174 2.958 1.174 1.933 0 3.122-.88 3.567-2.639l1.711.377zm-2.262-3.77c.116-1.044-.126-1.972-.725-2.784-.6-.812-1.489-1.218-2.668-1.218-1.121 0-1.982.367-2.581 1.102-.6.735-.967 1.701-1.102 2.9h7.076zm5.684-4.437c1.237-.831 2.755-1.247 4.553-1.247 3.074 0 4.611 1.44 4.611 4.321v6.148c0 .928.367 1.392 1.102 1.392.329 0 .619-.058.87-.174l.029 1.334a3.409 3.409 0 0 1-1.682.435c-.735 0-1.305-.232-1.711-.696-.406-.464-.619-1.102-.638-1.914v-.058a5.673 5.673 0 0 1-1.798 1.914c-.754.503-1.624.754-2.61.754-1.025 0-1.933-.29-2.726-.87-.793-.58-1.189-1.498-1.189-2.755 0-2.649 2.01-3.973 6.032-3.973.6 0 1.363.039 2.291.116v-1.16c0-1.005-.217-1.779-.653-2.32-.435-.541-1.193-.812-2.276-.812-.947 0-1.779.174-2.494.522l-.493 2.233-1.682-.203.464-2.987zm7.134 7.076v-.986c-1.199-.097-2.001-.145-2.407-.145-2.533 0-3.799.802-3.799 2.407 0 .754.237 1.305.71 1.653.474.348 1.04.522 1.697.522.947 0 1.798-.319 2.552-.957.754-.638 1.17-1.47 1.247-2.494zM137.112 27h-6.554v-1.653h2.262V8.701h-2.291V7.048h4.321v18.299h2.262V27zm4.002-16.24V8.121h2.204v2.639h-2.204zM145.609 27h-6.554v-1.653h2.262v-9.599h-2.32v-1.653h4.35v11.252h2.262V27zm10.701-3.48c-.348 2.513-1.711 3.77-4.089 3.77-1.276 0-2.262-.362-2.958-1.087-.696-.726-1.044-1.726-1.044-3.002v-7.482h-2.088v-1.624h2.088V9.948h2.03v4.147h5.046v1.624h-5.046v7.221c0 1.72.725 2.581 2.175 2.581.6 0 1.097-.174 1.493-.522.397-.348.682-1.005.856-1.972l1.537.493zm14.5-7.772h-1.537L164.72 27l-1.74 4.524h2.204v1.653h-6.554v-1.653h2.407l1.682-4.553-4.698-11.223h-1.537v-1.653h5.974v1.653h-2.262l3.625 8.671h.174l3.219-8.671h-2.088v-1.653h5.684v1.653z"/>
  </defs>
  <g fill="none" fill-rule="evenodd">
    <path fill="#000" fill-rule="nonzero" d="M0 0h119v38.443H0z"/>
    <g fill-rule="nonzero">
      <path fill="#000" d="M123 0h185v38.443H123z"/>
      <path fill="#FFF" d="M109.188 25.392l.063 2.122a5.467 5.467 0 0 1-2.535.655c-1.909 0-2.91-1.06-3.13-2.777-.781 1.404-2.22 2.777-4.505 2.777-2.034 0-4.318-1.06-4.318-4.025 0-3.432 3.285-4.243 6.57-4.243.752 0 1.565 0 2.254.125v-.468c0-1.466 0-3.151-2.253-3.151-.876 0-1.533.03-2.19.405l-.47 1.592-3.192-.375.532-3.245c2.441-.967 3.755-1.279 6.07-1.279 2.974 0 5.602 1.591 5.602 4.805v6.084c0 .842.313 1.092.97 1.092.125 0 .344 0 .532-.094zm-8.636-.062c1.439 0 2.941-1.092 3.035-3.4-.657-.094-1.346-.188-2.003-.188-1.44 0-2.722.374-2.722 1.966 0 .873.5 1.622 1.69 1.622zM91.133 6.392h3.974l-6.102 21.465h-3.943l6.071-21.465zm-8.167 0h3.974l-6.102 21.465h-3.974l6.102-21.465zM70.01 18.84h4.193v-5.054h-4.193v5.054zm0 9.017h4.193v-5.054h-4.193v5.054zm-6.821-3.026H58.62l7.823-8.955-.313-2.09H53.71l-.501 4.93 2.973.312.625-2.216h4.381l-7.76 8.924.407 2.121h12.36l.845-4.93-3.192-.28-.657 2.184zM43.633 13.505c5.069 0 7.572 3.4 7.572 7.363 0 4.462-3.285 7.301-7.791 7.301-4.38 0-7.354-2.62-7.354-7.145 0-4.118 2.504-7.519 7.573-7.519zm-.125 11.575c2.128 0 3.504-1.684 3.504-4.368 0-2.808-1.533-4.118-3.442-4.118-2.065 0-3.38 1.56-3.38 4.18 0 2.403 1.159 4.306 3.318 4.306zM32.43 18.404c0-3.37-2.347-4.899-4.82-4.899-2.252 0-3.88 1.186-4.63 3.058-.657-2.09-2.535-3.058-4.6-3.058-1.971 0-3.442.936-4.287 2.403v-2.122H8.18v3.058h1.877v7.987H8.18v3.026h8.574v-3.026h-2.66V19.9c0-1.965.814-3.338 2.722-3.338 1.565 0 2.41.967 2.41 3.4v7.894h5.914v-3.026h-1.878V19.9c0-1.965.783-3.338 2.691-3.338 1.659 0 2.472.967 2.472 3.4v7.894h5.914v-3.026h-1.908v-6.427z"/>
    </g>
    <g transform="translate(129)">
      <use fill="#000" xlink:href="#a"/>
      <use fill="#FFF" xlink:href="#a"/>
    </g>
  </g>
</svg>