{
    "asset" : {
        "generator" : "Khronos glTF Blender I/O v0.9.36",
        "version" : "2.0"
    },
    "extensionsUsed" : [
        "KHR_lights_punctual"
    ],
    "extensionsRequired" : [
        "KHR_lights_punctual"
    ],
    "extensions" : {
        "KHR_lights_punctual" : {
            "lights" : [
                {
                    "color" : [
                        1,
                        0.8860689997673035,
                        0.5913305282592773
                    ],
                    "intensity" : 200,
                    "spot" : {
                        "innerConeAngle" : 0,
                        "outerConeAngle" : 0.20943951606750488
                    },
                    "type" : "spot",
                    "name" : "Light"
                }
            ]
        }
    },
    "scene" : 0,
    "scenes" : [
        {
            "name" : "Scene",
            "nodes" : [
                1,
                2,
                3
            ]
        }
    ],
    "nodes" : [
        {
            "extensions" : {
                "KHR_lights_punctual" : {
                    "light" : 0
                }
            },
            "name" : "light_Orientation",
            "rotation" : [
                -0.7071067690849304,
                0,
                0,
                0.7071067690849304
            ]
        },
        {
            "children" : [
                0
            ],
            "name" : "light",
            "rotation" : [
                0.22930435836315155,
                -0.07789447158575058,
                -0.09868331998586655,
                0.9652013182640076
            ],
            "translation" : [
                0.5526390075683594,
                3.870598077774048,
                1.6061419248580933
            ]
        },
        {
            "mesh" : 0,
            "name" : "object",
            "rotation" : [
                0.6597931981086731,
                0,
                0,
                0.7514472603797913
            ],
            "translation" : [
                0,
                0.9825301766395569,
                0.010121487081050873
            ]
        },
        {
            "mesh" : 1,
            "name" : "floor",
            "scale" : [
                8.041523933410645,
                8.041523933410645,
                8.041523933410645
            ],
            "translation" : [
                0,
                0,
                -0.18639162182807922
            ]
        }
    ],
    "meshes" : [
        {
            "name" : "model_mesh",
            "primitives" : [
                {
                    "attributes" : {
                        "POSITION" : 0,
                        "TEXCOORD_0" : 1
                    },
                    "indices" : 2
                }
            ]
        },
        {
            "name" : "Plane",
            "primitives" : [
                {
                    "attributes" : {
                        "POSITION" : 3,
                        "TEXCOORD_0" : 4
                    },
                    "indices" : 5
                }
            ]
        }
    ],
    "accessors" : [
        {
            "bufferView" : 0,
            "componentType" : 5126,
            "count" : 34031,
            "max" : [
                0.2796998620033264,
                0.24583180248737335,
                0.9963789582252502
            ],
            "min" : [
                -0.3018336594104767,
                -0.2860497832298279,
                -0.856860876083374
            ],
            "type" : "VEC3"
        },
        {
            "bufferView" : 1,
            "componentType" : 5126,
            "count" : 34031,
            "type" : "VEC2"
        },
        {
            "bufferView" : 2,
            "componentType" : 5123,
            "count" : 181026,
            "type" : "SCALAR"
        },
        {
            "bufferView" : 3,
            "componentType" : 5126,
            "count" : 4,
            "max" : [
                0.1432594358921051,
                0,
                0.10936686396598816
            ],
            "min" : [
                -0.18084865808486938,
                0,
                -0.20129138231277466
            ],
            "type" : "VEC3"
        },
        {
            "bufferView" : 4,
            "componentType" : 5126,
            "count" : 4,
            "type" : "VEC2"
        },
        {
            "bufferView" : 5,
            "componentType" : 5123,
            "count" : 6,
            "type" : "SCALAR"
        }
    ],
    "bufferViews" : [
        {
            "buffer" : 0,
            "byteLength" : 408372,
            "byteOffset" : 0
        },
        {
            "buffer" : 0,
            "byteLength" : 272248,
            "byteOffset" : 408372
        },
        {
            "buffer" : 0,
            "byteLength" : 362052,
            "byteOffset" : 680620
        },
        {
            "buffer" : 0,
            "byteLength" : 48,
            "byteOffset" : 1042672
        },
        {
            "buffer" : 0,
            "byteLength" : 32,
            "byteOffset" : 1042720
        },
        {
            "buffer" : 0,
            "byteLength" : 12,
            "byteOffset" : 1042752
        }
    ],
    "buffers" : [
        {
            "byteLength" : 1042764,
            "uri" : "data:application/octet-stream;base64,"
        }
    ]
}
