<svg width="16" height="13" viewBox="0 0 16 13" fill="none" xmlns="http://www.w3.org/2000/svg">
<path d="M5.03168 13C11.0694 13 14.3718 7.99808 14.3718 3.66044C14.3718 3.51837 14.3718 3.37694 14.3622 3.23615C15.0047 2.77148 15.5593 2.19613 16 1.53705C15.4009 1.80251 14.7653 1.9766 14.1146 2.0535C14.7998 1.64328 15.3127 0.998062 15.5578 0.237937C14.9134 0.620284 14.2084 0.889743 13.4733 1.03469C12.9783 0.508438 12.3237 0.15997 11.6108 0.0432057C10.8978 -0.073558 10.1663 0.0478923 9.52931 0.388763C8.89234 0.729633 8.38548 1.27092 8.08716 1.92886C7.78884 2.5868 7.71569 3.32472 7.87904 4.02841C6.57392 3.96299 5.29715 3.62385 4.13161 3.03302C2.96607 2.44218 1.93782 1.61285 1.1136 0.598874C0.693819 1.32149 0.565248 2.17692 0.754066 2.991C0.942885 3.80508 1.43489 4.51659 2.12992 4.98067C1.60751 4.96519 1.0965 4.82428 0.64 4.56982C0.64 4.58326 0.64 4.59734 0.64 4.61142C0.640207 5.36927 0.902567 6.10372 1.38258 6.6902C1.86259 7.27667 2.53071 7.67907 3.2736 7.82913C2.79032 7.96092 2.28325 7.98019 1.79136 7.88545C2.00113 8.53767 2.40951 9.10803 2.95941 9.51675C3.5093 9.92547 4.17319 10.1521 4.85824 10.165C3.69583 11.0785 2.25988 11.5744 0.78144 11.5729C0.520258 11.5724 0.259331 11.5566 0 11.5255C1.50121 12.4888 3.24794 12.9998 5.03168 12.9974" fill="white"/>
</svg>
