{
    "asset" : {
        "generator" : "Khronos glTF Blender I/O v0.9.36",
        "version" : "2.0"
    },
    "scene" : 0,
    "scenes" : [
        {
            "name" : "Scene",
            "nodes" : [
                0
            ]
        }
    ],
    "nodes" : [
        {
            "mesh" : 0,
            "name" : "Plane",
            "scale" : [
                0.2335401177406311,
                0.2335401177406311,
                0.2335401177406311
            ]
        }
    ],
    "meshes" : [
        {
            "name" : "Plane",
            "primitives" : [
                {
                    "attributes" : {
                        "POSITION" : 0,
                        "TEXCOORD_0" : 1,
                        "TEXCOORD_1" : 2
                    },
                    "indices" : 3
                }
            ]
        }
    ],
    "accessors" : [
        {
            "bufferView" : 0,
            "componentType" : 5126,
            "count" : 3942,
            "max" : [
                73.40181732177734,
                31.22168731689453,
                83.18843078613281
            ],
            "min" : [
                -83.17224884033203,
                -107.9792709350586,
                -73.38563537597656
            ],
            "type" : "VEC3"
        },
        {
            "bufferView" : 1,
            "componentType" : 5126,
            "count" : 3942,
            "type" : "VEC2"
        },
        {
            "bufferView" : 2,
            "componentType" : 5126,
            "count" : 3942,
            "type" : "VEC2"
        },
        {
            "bufferView" : 3,
            "componentType" : 5123,
            "count" : 5130,
            "type" : "SCALAR"
        }
    ],
    "bufferViews" : [
        {
            "buffer" : 0,
            "byteLength" : 47304,
            "byteOffset" : 0
        },
        {
            "buffer" : 0,
            "byteLength" : 31536,
            "byteOffset" : 47304
        },
        {
            "buffer" : 0,
            "byteLength" : 31536,
            "byteOffset" : 78840
        },
        {
            "buffer" : 0,
            "byteLength" : 10260,
            "byteOffset" : 110376
        }
    ],
    "buffers" : [
        {
            "byteLength" : 120636,
            "uri" : "data:application/octet-stream;base64,"
        }
    ]
}
