{
    "asset" : {
        "generator" : "Khronos glTF Blender I/O v0.9.36",
        "version" : "2.0"
    },
    "scene" : 0,
    "scenes" : [
        {
            "name" : "Scene",
            "nodes" : [
                0
            ]
        }
    ],
    "nodes" : [
        {
            "mesh" : 0,
            "name" : "Plane",
            "scale" : [
                0.2335401177406311,
                0.2335401177406311,
                0.2335401177406311
            ]
        }
    ],
    "meshes" : [
        {
            "name" : "Plane",
            "primitives" : [
                {
                    "attributes" : {
                        "POSITION" : 0,
                        "TEXCOORD_0" : 1,
                        "TEXCOORD_1" : 2
                    },
                    "indices" : 3
                }
            ]
        }
    ],
    "accessors" : [
        {
            "bufferView" : 0,
            "componentType" : 5126,
            "count" : 3947,
            "max" : [
                289.0010070800781,
                31.22168731689453,
                288.4752502441406
            ],
            "min" : [
                -310.3913879394531,
                -102.62667846679688,
                -310.9171447753906
            ],
            "type" : "VEC3"
        },
        {
            "bufferView" : 1,
            "componentType" : 5126,
            "count" : 3947,
            "type" : "VEC2"
        },
        {
            "bufferView" : 2,
            "componentType" : 5126,
            "count" : 3947,
            "type" : "VEC2"
        },
        {
            "bufferView" : 3,
            "componentType" : 5123,
            "count" : 5136,
            "type" : "SCALAR"
        }
    ],
    "bufferViews" : [
        {
            "buffer" : 0,
            "byteLength" : 47364,
            "byteOffset" : 0
        },
        {
            "buffer" : 0,
            "byteLength" : 31576,
            "byteOffset" : 47364
        },
        {
            "buffer" : 0,
            "byteLength" : 31576,
            "byteOffset" : 78940
        },
        {
            "buffer" : 0,
            "byteLength" : 10272,
            "byteOffset" : 110516
        }
    ],
    "buffers" : [
        {
            "byteLength" : 120788,
            "uri" : "data:application/octet-stream;base64,"
        }
    ]
}
