{
    "asset" : {
        "generator" : "Khronos glTF Blender I/O v0.9.36",
        "version" : "2.0"
    },
    "scene" : 0,
    "scenes" : [
        {
            "name" : "Scene",
            "nodes" : [
                0
            ]
        }
    ],
    "nodes" : [
        {
            "mesh" : 0,
            "name" : "Plane.001"
        }
    ],
    "meshes" : [
        {
            "name" : "Plane.002",
            "primitives" : [
                {
                    "attributes" : {
                        "POSITION" : 0,
                        "TEXCOORD_0" : 1
                    },
                    "indices" : 2
                }
            ]
        }
    ],
    "accessors" : [
        {
            "bufferView" : 0,
            "componentType" : 5126,
            "count" : 632,
            "max" : [
                150,
                112.11416625976562,
                150
            ],
            "min" : [
                -164.9384765625,
                -498.6548156738281,
                -150
            ],
            "type" : "VEC3"
        },
        {
            "bufferView" : 1,
            "componentType" : 5126,
            "count" : 632,
            "type" : "VEC2"
        },
        {
            "bufferView" : 2,
            "componentType" : 5123,
            "count" : 960,
            "type" : "SCALAR"
        }
    ],
    "bufferViews" : [
        {
            "buffer" : 0,
            "byteLength" : 7584,
            "byteOffset" : 0
        },
        {
            "buffer" : 0,
            "byteLength" : 5056,
            "byteOffset" : 7584
        },
        {
            "buffer" : 0,
            "byteLength" : 1920,
            "byteOffset" : 12640
        }
    ],
    "buffers" : [
        {
            "byteLength" : 14560,
            "uri" : "data:application/octet-stream;base64,"
        }
    ]
}
