{
    "asset" : {
        "generator" : "Khronos glTF Blender I/O v0.9.36",
        "version" : "2.0"
    },
    "scene" : 0,
    "scenes" : [
        {
            "name" : "Scene",
            "nodes" : [
                0
            ]
        }
    ],
    "nodes" : [
        {
            "mesh" : 0,
            "name" : "Plane",
            "scale" : [
                156.57406616210938,
                156.57406616210938,
                156.57406616210938
            ],
            "translation" : [
                -4.88521671295166,
                -101.57062530517578,
                4.901397705078125
            ]
        }
    ],
    "meshes" : [
        {
            "name" : "Plane",
            "primitives" : [
                {
                    "attributes" : {
                        "POSITION" : 0,
                        "TEXCOORD_0" : 1,
                        "TEXCOORD_1" : 2
                    },
                    "indices" : 3
                }
            ]
        }
    ],
    "accessors" : [
        {
            "bufferView" : 0,
            "componentType" : 5126,
            "count" : 1772,
            "max" : [
                1,
                0.6511722803115845,
                1
            ],
            "min" : [
                -1,
                -0.044195953756570816,
                -1
            ],
            "type" : "VEC3"
        },
        {
            "bufferView" : 1,
            "componentType" : 5126,
            "count" : 1772,
            "type" : "VEC2"
        },
        {
            "bufferView" : 2,
            "componentType" : 5126,
            "count" : 1772,
            "type" : "VEC2"
        },
        {
            "bufferView" : 3,
            "componentType" : 5123,
            "count" : 2694,
            "type" : "SCALAR"
        }
    ],
    "bufferViews" : [
        {
            "buffer" : 0,
            "byteLength" : 21264,
            "byteOffset" : 0
        },
        {
            "buffer" : 0,
            "byteLength" : 14176,
            "byteOffset" : 21264
        },
        {
            "buffer" : 0,
            "byteLength" : 14176,
            "byteOffset" : 35440
        },
        {
            "buffer" : 0,
            "byteLength" : 5388,
            "byteOffset" : 49616
        }
    ],
    "buffers" : [
        {
            "byteLength" : 55004,
            "uri" : "data:application/octet-stream;base64,"
        }
    ]
}
